<svg width="1920" height="1080" xmlns="http://www.w3.org/2000/svg">
  <path fill="#050505" d="M0 0h1920v1080H0z"/><path d="M0 430l17.8 3.8c17.9 3.9 53.5 11.5 89 7.5s70.9-19.6 106.4-16c35.5 3.7 71.1 26.7 106.8 24.2S391.3 419 426.8 419s70.9 28 106.4 36.3c35.5 8.4 71.1-3 106.8-5.6 35.7-2.7 71.3 3.3 106.8 11 35.5 7.6 70.9 17 106.4 15.8 35.5-1.2 71.1-12.8 106.8-31.7 35.7-18.8 71.3-44.8 106.8-51.1 35.5-6.4 70.9 7 106.4 10.3 35.5 3.3 71.1-3.3 106.8 10s71.3 46.7 106.8 62.2 70.9 13.1 106.4 6.3 71.1-18.2 106.8-22.3c35.7-4.2 71.3-1.2 106.8 4.1 35.5 5.4 70.9 13 106.4 20.5s71.1 14.9 89 18.5l17.8 3.7v574H0z" fill="#60f"/>
  <path d="M0 540l17.8 1.2c17.9 1.1 53.5 3.5 89 19s70.9 44.1 106.4 37c35.5-7.2 71.1-50.2 106.8-70.5 35.7-20.4 71.3-18 106.8-2.2s70.9 45.2 106.4 64.8C568.7 609 604.3 619 640 610.2c35.7-8.9 71.3-36.5 106.8-51.2 35.5-14.7 70.9-16.3 106.4-16.5 35.5-.2 71.1 1.2 106.8 9s71.3 22.2 106.8 32.2c35.5 10 70.9 15.6 106.4 23 35.5 7.3 71.1 16.3 106.8 23.8s71.3 13.5 106.8 16.3c35.5 2.9 70.9 2.5 106.4-9.1 35.5-11.7 71.1-34.7 106.8-45.2s71.3-8.5 106.8-8 70.9-.5 106.4-13.3c35.5-12.9 71.1-37.5 89-49.9L1920 509v572H0z" fill="#c400d0"/>
  <path d="M0 629l17.8 15c17.9 15 53.5 45 89 53s70.9-6 106.4 3 71.1 41 106.8 36.3c35.7-4.6 71.3-46 106.8-68.3 35.5-22.3 70.9-25.7 106.4-8.5s71.1 54.8 106.8 58.2c35.7 3.3 71.3-27.7 106.8-46.5 35.5-18.9 70.9-25.5 106.4-30s71.1-6.9 106.8 1c35.7 7.8 71.3 25.8 106.8 34.8 35.5 9 70.9 9 106.4 5s71.1-12 106.8 2.8c35.7 14.9 71.3 52.5 106.8 62.2 35.5 9.7 70.9-8.7 106.4-33s71.1-54.7 106.8-50.3c35.7 4.3 71.3 43.3 106.8 45.8s70.9-31.5 106.4-41.2c35.5-9.6 71.1 5 89 12.4l17.8 7.3v393H0z" fill="#e800a9"/>
  <path d="M0 802l17.8 10.2c17.9 10.1 53.5 30.5 89 23.3 35.5-7.2 70.9-41.8 106.4-40.3s71.1 39.1 106.8 43.1 71.3-25.6 106.8-34c35.5-8.3 70.9 4.7 106.4 7 35.5 2.4 71.1-6 106.8-12.5s71.3-11.1 106.8 5.4 70.9 54.1 106.4 70c35.5 15.8 71.1 9.8 106.8-8.7s71.3-49.5 106.8-67.8c35.5-18.4 70.9-24 106.4-19s71.1 20.6 106.8 43c35.7 22.3 71.3 51.3 106.8 56.8s70.9-12.5 106.4-17 71.1 4.5 106.8-11.5 71.3-57 106.8-66.7c35.5-9.6 70.9 12 106.4 12.5s71.1-20.1 89-30.5L1920 755v326H0z" fill="#f90087"/>
  <path d="M0 909l17.8 2.7c17.9 2.6 53.5 8 89 16.1 35.5 8.2 70.9 19.2 106.4 16 35.5-3.1 71.1-20.5 106.8-27.1 35.7-6.7 71.3-2.7 106.8 4 35.5 6.6 70.9 16 106.4 33.5s71.1 43.1 106.8 41.3c35.7-1.8 71.3-31.2 106.8-47.8 35.5-16.7 70.9-20.7 106.4-14.4 35.5 6.4 71.1 23 106.8 39.2 35.7 16.2 71.3 31.8 106.8 36 35.5 4.2 70.9-3.2 106.4-16.7s71.1-33.1 106.8-42.3c35.7-9.2 71.3-7.8 106.8-13s70.9-16.8 106.4-24.2c35.5-7.3 71.1-10.3 106.8 6.4 35.7 16.6 71.3 53 106.8 57.1 35.5 4.2 70.9-23.8 106.4-29.5 35.5-5.6 71.1 11 89 19.4l17.8 8.3v107H0z" fill="#f06"/>
</svg>