<svg id="visual" viewBox="0 0 1920 1080" width="1920" height="1080" xmlns="http://www.w3.org/2000/svg" xmlns:xlink="http://www.w3.org/1999/xlink" version="1.1"><rect x="0" y="0" width="1920" height="1080" fill="#ffffff"></rect><path d="M0 494L24.7 502.5C49.3 511 98.7 528 147.8 541.2C197 554.3 246 563.7 295.2 578C344.3 592.3 393.7 611.7 443 603.8C492.3 596 541.7 561 590.8 542.2C640 523.3 689 520.7 738.2 536.7C787.3 552.7 836.7 587.3 886 606.3C935.3 625.3 984.7 628.7 1034 605.5C1083.3 582.3 1132.7 532.7 1181.8 520.3C1231 508 1280 533 1329.2 545.2C1378.3 557.3 1427.7 556.7 1477 563C1526.3 569.3 1575.7 582.7 1624.8 591.7C1674 600.7 1723 605.3 1772.2 600.5C1821.3 595.7 1870.7 581.3 1895.3 574.2L1920 567L1920 1081L1895.3 1081C1870.7 1081 1821.3 1081 1772.2 1081C1723 1081 1674 1081 1624.8 1081C1575.7 1081 1526.3 1081 1477 1081C1427.7 1081 1378.3 1081 1329.2 1081C1280 1081 1231 1081 1181.8 1081C1132.7 1081 1083.3 1081 1034 1081C984.7 1081 935.3 1081 886 1081C836.7 1081 787.3 1081 738.2 1081C689 1081 640 1081 590.8 1081C541.7 1081 492.3 1081 443 1081C393.7 1081 344.3 1081 295.2 1081C246 1081 197 1081 147.8 1081C98.7 1081 49.3 1081 24.7 1081L0 1081Z" fill="#fcb13d"></path><path d="M0 633L24.7 638.8C49.3 644.7 98.7 656.3 147.8 672.7C197 689 246 710 295.2 715.3C344.3 720.7 393.7 710.3 443 698.5C492.3 686.7 541.7 673.3 590.8 672.8C640 672.3 689 684.7 738.2 699.2C787.3 713.7 836.7 730.3 886 731.5C935.3 732.7 984.7 718.3 1034 697.2C1083.3 676 1132.7 648 1181.8 645.3C1231 642.7 1280 665.3 1329.2 668C1378.3 670.7 1427.7 653.3 1477 651.7C1526.3 650 1575.7 664 1624.8 673.8C1674 683.7 1723 689.3 1772.2 703C1821.3 716.7 1870.7 738.3 1895.3 749.2L1920 760L1920 1081L1895.3 1081C1870.7 1081 1821.3 1081 1772.2 1081C1723 1081 1674 1081 1624.8 1081C1575.7 1081 1526.3 1081 1477 1081C1427.7 1081 1378.3 1081 1329.2 1081C1280 1081 1231 1081 1181.8 1081C1132.7 1081 1083.3 1081 1034 1081C984.7 1081 935.3 1081 886 1081C836.7 1081 787.3 1081 738.2 1081C689 1081 640 1081 590.8 1081C541.7 1081 492.3 1081 443 1081C393.7 1081 344.3 1081 295.2 1081C246 1081 197 1081 147.8 1081C98.7 1081 49.3 1081 24.7 1081L0 1081Z" fill="#ff873c"></path><path d="M0 873L24.7 875.8C49.3 878.7 98.7 884.3 147.8 886.5C197 888.7 246 887.3 295.2 887.2C344.3 887 393.7 888 443 871.3C492.3 854.7 541.7 820.3 590.8 807.2C640 794 689 802 738.2 797.3C787.3 792.7 836.7 775.3 886 767.8C935.3 760.3 984.7 762.7 1034 773.2C1083.3 783.7 1132.7 802.3 1181.8 813.3C1231 824.3 1280 827.7 1329.2 836.7C1378.3 845.7 1427.7 860.3 1477 869.5C1526.3 878.7 1575.7 882.3 1624.8 874.2C1674 866 1723 846 1772.2 832.3C1821.3 818.7 1870.7 811.3 1895.3 807.7L1920 804L1920 1081L1895.3 1081C1870.7 1081 1821.3 1081 1772.2 1081C1723 1081 1674 1081 1624.8 1081C1575.7 1081 1526.3 1081 1477 1081C1427.7 1081 1378.3 1081 1329.2 1081C1280 1081 1231 1081 1181.8 1081C1132.7 1081 1083.3 1081 1034 1081C984.7 1081 935.3 1081 886 1081C836.7 1081 787.3 1081 738.2 1081C689 1081 640 1081 590.8 1081C541.7 1081 492.3 1081 443 1081C393.7 1081 344.3 1081 295.2 1081C246 1081 197 1081 147.8 1081C98.7 1081 49.3 1081 24.7 1081L0 1081Z" fill="#ff574b"></path><path d="M0 944L24.7 943.5C49.3 943 98.7 942 147.8 942.2C197 942.3 246 943.7 295.2 933.8C344.3 924 393.7 903 443 911C492.3 919 541.7 956 590.8 971.7C640 987.3 689 981.7 738.2 986C787.3 990.3 836.7 1004.7 886 1008.5C935.3 1012.3 984.7 1005.7 1034 1006.7C1083.3 1007.7 1132.7 1016.3 1181.8 1016.8C1231 1017.3 1280 1009.7 1329.2 993.8C1378.3 978 1427.7 954 1477 947.5C1526.3 941 1575.7 952 1624.8 955.3C1674 958.7 1723 954.3 1772.2 956.5C1821.3 958.7 1870.7 967.3 1895.3 971.7L1920 976L1920 1081L1895.3 1081C1870.7 1081 1821.3 1081 1772.2 1081C1723 1081 1674 1081 1624.8 1081C1575.7 1081 1526.3 1081 1477 1081C1427.7 1081 1378.3 1081 1329.2 1081C1280 1081 1231 1081 1181.8 1081C1132.7 1081 1083.3 1081 1034 1081C984.7 1081 935.3 1081 886 1081C836.7 1081 787.3 1081 738.2 1081C689 1081 640 1081 590.8 1081C541.7 1081 492.3 1081 443 1081C393.7 1081 344.3 1081 295.2 1081C246 1081 197 1081 147.8 1081C98.7 1081 49.3 1081 24.7 1081L0 1081Z" fill="#ff0066"></path></svg>