<svg id="visual" viewBox="0 0 1920 1080" width="1920" height="1080" xmlns="http://www.w3.org/2000/svg" xmlns:xlink="http://www.w3.org/1999/xlink" version="1.1"><path d="M0 120L20 123.5C40 127 80 134 120 130.3C160 126.7 200 112.3 240 112.3C280 112.3 320 126.7 360 132.2C400 137.7 440 134.3 480 130.8C520 127.3 560 123.7 600 121.8C640 120 680 120 720 123.5C760 127 800 134 840 135.8C880 137.7 920 134.3 960 134.3C1000 134.3 1040 137.7 1080 139.3C1120 141 1160 141 1200 135.7C1240 130.3 1280 119.7 1320 118C1360 116.3 1400 123.7 1440 125.5C1480 127.3 1520 123.7 1560 120C1600 116.3 1640 112.7 1680 114.5C1720 116.3 1760 123.7 1800 129C1840 134.3 1880 137.7 1900 139.3L1920 141L1920 0L1900 0C1880 0 1840 0 1800 0C1760 0 1720 0 1680 0C1640 0 1600 0 1560 0C1520 0 1480 0 1440 0C1400 0 1360 0 1320 0C1280 0 1240 0 1200 0C1160 0 1120 0 1080 0C1040 0 1000 0 960 0C920 0 880 0 840 0C800 0 760 0 720 0C680 0 640 0 600 0C560 0 520 0 480 0C440 0 400 0 360 0C320 0 280 0 240 0C200 0 160 0 120 0C80 0 40 0 20 0L0 0Z" fill="#a067ff"></path><path d="M0 185L20 194C40 203 80 221 120 217.3C160 213.7 200 188.3 240 184.7C280 181 320 199 360 208C400 217 440 217 480 213.3C520 209.7 560 202.3 600 198.7C640 195 680 195 720 202.3C760 209.7 800 224.3 840 229.8C880 235.3 920 231.7 960 228C1000 224.3 1040 220.7 1080 220.7C1120 220.7 1160 224.3 1200 222.5C1240 220.7 1280 213.3 1320 213.3C1360 213.3 1400 220.7 1440 218.8C1480 217 1520 206 1560 200.5C1600 195 1640 195 1680 198.7C1720 202.3 1760 209.7 1800 215.2C1840 220.7 1880 224.3 1900 226.2L1920 228L1920 139L1900 137.3C1880 135.7 1840 132.3 1800 127C1760 121.7 1720 114.3 1680 112.5C1640 110.7 1600 114.3 1560 118C1520 121.7 1480 125.3 1440 123.5C1400 121.7 1360 114.3 1320 116C1280 117.7 1240 128.3 1200 133.7C1160 139 1120 139 1080 137.3C1040 135.7 1000 132.3 960 132.3C920 132.3 880 135.7 840 133.8C800 132 760 125 720 121.5C680 118 640 118 600 119.8C560 121.7 520 125.3 480 128.8C440 132.3 400 135.7 360 130.2C320 124.7 280 110.3 240 110.3C200 110.3 160 124.7 120 128.3C80 132 40 125 20 121.5L0 118Z" fill="#8f4fff"></path><path d="M0 271L20 283.7C40 296.3 80 321.7 120 323.5C160 325.3 200 303.7 240 301.8C280 300 320 318 360 327C400 336 440 336 480 328.8C520 321.7 560 307.3 600 301.8C640 296.3 680 299.7 720 305C760 310.3 800 317.7 840 325C880 332.3 920 339.7 960 339.7C1000 339.7 1040 332.3 1080 326.8C1120 321.3 1160 317.7 1200 314C1240 310.3 1280 306.7 1320 306.7C1360 306.7 1400 310.3 1440 308.7C1480 307 1520 300 1560 298.2C1600 296.3 1640 299.7 1680 303.2C1720 306.7 1760 310.3 1800 312.2C1840 314 1880 314 1900 314L1920 314L1920 226L1900 224.2C1880 222.3 1840 218.7 1800 213.2C1760 207.7 1720 200.3 1680 196.7C1640 193 1600 193 1560 198.5C1520 204 1480 215 1440 216.8C1400 218.7 1360 211.3 1320 211.3C1280 211.3 1240 218.7 1200 220.5C1160 222.3 1120 218.7 1080 218.7C1040 218.7 1000 222.3 960 226C920 229.7 880 233.3 840 227.8C800 222.3 760 207.7 720 200.3C680 193 640 193 600 196.7C560 200.3 520 207.7 480 211.3C440 215 400 215 360 206C320 197 280 179 240 182.7C200 186.3 160 211.7 120 215.3C80 219 40 201 20 192L0 183Z" fill="#7c33ff"></path><path d="M0 519L20 524.5C40 530 80 541 120 553.7C160 566.3 200 580.7 240 586C280 591.3 320 587.7 360 593C400 598.3 440 612.7 480 603.7C520 594.7 560 562.3 600 551.7C640 541 680 552 720 571.8C760 591.7 800 620.3 840 622C880 623.7 920 598.3 960 584C1000 569.7 1040 566.3 1080 573.7C1120 581 1160 599 1200 604.3C1240 609.7 1280 602.3 1320 591.5C1360 580.7 1400 566.3 1440 553.7C1480 541 1520 530 1560 526.3C1600 522.7 1640 526.3 1680 530C1720 533.7 1760 537.3 1800 544.5C1840 551.7 1880 562.3 1900 567.7L1920 573L1920 312L1900 312C1880 312 1840 312 1800 310.2C1760 308.3 1720 304.7 1680 301.2C1640 297.7 1600 294.3 1560 296.2C1520 298 1480 305 1440 306.7C1400 308.3 1360 304.7 1320 304.7C1280 304.7 1240 308.3 1200 312C1160 315.7 1120 319.3 1080 324.8C1040 330.3 1000 337.7 960 337.7C920 337.7 880 330.3 840 323C800 315.7 760 308.3 720 303C680 297.7 640 294.3 600 299.8C560 305.3 520 319.7 480 326.8C440 334 400 334 360 325C320 316 280 298 240 299.8C200 301.7 160 323.3 120 321.5C80 319.7 40 294.3 20 281.7L0 269Z" fill="#6600ff"></path><path d="M0 800L20 803.7C40 807.3 80 814.7 120 816.5C160 818.3 200 814.7 240 821.8C280 829 320 847 360 848.8C400 850.7 440 836.3 480 827.3C520 818.3 560 814.7 600 816.5C640 818.3 680 825.7 720 832.8C760 840 800 847 840 847C880 847 920 840 960 829.2C1000 818.3 1040 803.7 1080 803.7C1120 803.7 1160 818.3 1200 825.7C1240 833 1280 833 1320 838.3C1360 843.7 1400 854.3 1440 850.7C1480 847 1520 829 1560 821.8C1600 814.7 1640 818.3 1680 818.3C1720 818.3 1760 814.7 1800 812.8C1840 811 1880 811 1900 811L1920 811L1920 571L1900 565.7C1880 560.3 1840 549.7 1800 542.5C1760 535.3 1720 531.7 1680 528C1640 524.3 1600 520.7 1560 524.3C1520 528 1480 539 1440 551.7C1400 564.3 1360 578.7 1320 589.5C1280 600.3 1240 607.7 1200 602.3C1160 597 1120 579 1080 571.7C1040 564.3 1000 567.7 960 582C920 596.3 880 621.7 840 620C800 618.3 760 589.7 720 569.8C680 550 640 539 600 549.7C560 560.3 520 592.7 480 601.7C440 610.7 400 596.3 360 591C320 585.7 280 589.3 240 584C200 578.7 160 564.3 120 551.7C80 539 40 528 20 522.5L0 517Z" fill="#5d01e8"></path><path d="M0 908L20 906.2C40 904.3 80 900.7 120 902.5C160 904.3 200 911.7 240 919C280 926.3 320 933.7 360 935.5C400 937.3 440 933.7 480 926.3C520 919 560 908 600 904.3C640 900.7 680 904.3 720 909.8C760 915.3 800 922.7 840 924.5C880 926.3 920 922.7 960 917.2C1000 911.7 1040 904.3 1080 904.3C1120 904.3 1160 911.7 1200 913.5C1240 915.3 1280 911.7 1320 915.3C1360 919 1400 930 1440 931.8C1480 933.7 1520 926.3 1560 924.5C1600 922.7 1640 926.3 1680 926.3C1720 926.3 1760 922.7 1800 915.5C1840 908.3 1880 897.7 1900 892.3L1920 887L1920 809L1900 809C1880 809 1840 809 1800 810.8C1760 812.7 1720 816.3 1680 816.3C1640 816.3 1600 812.7 1560 819.8C1520 827 1480 845 1440 848.7C1400 852.3 1360 841.7 1320 836.3C1280 831 1240 831 1200 823.7C1160 816.3 1120 801.7 1080 801.7C1040 801.7 1000 816.3 960 827.2C920 838 880 845 840 845C800 845 760 838 720 830.8C680 823.7 640 816.3 600 814.5C560 812.7 520 816.3 480 825.3C440 834.3 400 848.7 360 846.8C320 845 280 827 240 819.8C200 812.7 160 816.3 120 814.5C80 812.7 40 805.3 20 801.7L0 798Z" fill="#5402d1"></path><path d="M0 1081L20 1081C40 1081 80 1081 120 1081C160 1081 200 1081 240 1081C280 1081 320 1081 360 1081C400 1081 440 1081 480 1081C520 1081 560 1081 600 1081C640 1081 680 1081 720 1081C760 1081 800 1081 840 1081C880 1081 920 1081 960 1081C1000 1081 1040 1081 1080 1081C1120 1081 1160 1081 1200 1081C1240 1081 1280 1081 1320 1081C1360 1081 1400 1081 1440 1081C1480 1081 1520 1081 1560 1081C1600 1081 1640 1081 1680 1081C1720 1081 1760 1081 1800 1081C1840 1081 1880 1081 1900 1081L1920 1081L1920 885L1900 890.3C1880 895.7 1840 906.3 1800 913.5C1760 920.7 1720 924.3 1680 924.3C1640 924.3 1600 920.7 1560 922.5C1520 924.3 1480 931.7 1440 929.8C1400 928 1360 917 1320 913.3C1280 909.7 1240 913.3 1200 911.5C1160 909.7 1120 902.3 1080 902.3C1040 902.3 1000 909.7 960 915.2C920 920.7 880 924.3 840 922.5C800 920.7 760 913.3 720 907.8C680 902.3 640 898.7 600 902.3C560 906 520 917 480 924.3C440 931.7 400 935.3 360 933.5C320 931.7 280 924.3 240 917C200 909.7 160 902.3 120 900.5C80 898.7 40 902.3 20 904.2L0 906Z" fill="#4b03ba"></path></svg>