<svg width="39" height="39" viewBox="0 0 39 39" fill="none" xmlns="http://www.w3.org/2000/svg">
<path d="M17.5462 4.65661C18.0831 4.17425 18.7793 3.90741 19.5011 3.90741C20.2228 3.90741 20.9191 4.17425 21.4559 4.65661L32.1809 14.2935C32.4859 14.5677 32.7297 14.903 32.8967 15.2776C33.0637 15.6522 33.15 16.0577 33.1501 16.4678V30.225C33.1501 31.0008 32.8419 31.7448 32.2934 32.2933C31.7448 32.8418 31.0009 33.15 30.2251 33.15H25.3501C24.5743 33.15 23.8304 32.8418 23.2818 32.2933C22.7333 31.7448 22.4251 31.0008 22.4251 30.225V23.4C22.4251 23.1414 22.3224 22.8934 22.1395 22.7106C21.9567 22.5277 21.7087 22.425 21.4501 22.425H17.5501C17.2915 22.425 17.0435 22.5277 16.8607 22.7106C16.6778 22.8934 16.5751 23.1414 16.5751 23.4V30.225C16.5751 31.0008 16.2669 31.7448 15.7184 32.2933C15.1698 32.8418 14.4259 33.15 13.6501 33.15H8.7751C7.99934 33.15 7.25535 32.8418 6.70681 32.2933C6.15827 31.7448 5.8501 31.0008 5.8501 30.225V16.4678C5.8501 15.639 6.2011 14.8493 6.8212 14.2935L17.5462 4.65661ZM20.1514 6.10741C19.9725 5.94681 19.7405 5.85797 19.5001 5.85797C19.2597 5.85797 19.0277 5.94681 18.8488 6.10741L8.1238 15.7443C8.0222 15.8355 7.94088 15.947 7.88512 16.0717C7.82936 16.1963 7.80039 16.3312 7.8001 16.4678V30.225C7.8001 30.4836 7.90282 30.7316 8.08567 30.9144C8.26852 31.0973 8.51651 31.2 8.7751 31.2H13.6501C13.9087 31.2 14.1567 31.0973 14.3395 30.9144C14.5224 30.7316 14.6251 30.4836 14.6251 30.225V23.4C14.6251 22.6243 14.9333 21.8803 15.4818 21.3317C16.0304 20.7832 16.7743 20.475 17.5501 20.475H21.4501C22.2259 20.475 22.9698 20.7832 23.5184 21.3317C24.0669 21.8803 24.3751 22.6243 24.3751 23.4V30.225C24.3751 30.4836 24.4778 30.7316 24.6607 30.9144C24.8435 31.0973 25.0915 31.2 25.3501 31.2H30.2251C30.4837 31.2 30.7317 31.0973 30.9145 30.9144C31.0974 30.7316 31.2001 30.4836 31.2001 30.225V16.4678C31.1998 16.3312 31.1708 16.1963 31.1151 16.0717C31.0593 15.947 30.978 15.8355 30.8764 15.7443L20.1514 6.10741Z" fill="black"/>
</svg>
