<svg width="39" height="39" viewBox="0 0 39 39" fill="none" xmlns="http://www.w3.org/2000/svg">
<path d="M11.375 11.375H27.625M11.375 19.5H27.625M11.375 27.625H21.125M30.875 4.875H8.125C7.26305 4.875 6.4364 5.21741 5.8269 5.8269C5.21741 6.4364 4.875 7.26305 4.875 8.125V30.875C4.875 31.737 5.21741 32.5636 5.8269 33.1731C6.4364 33.7826 7.26305 34.125 8.125 34.125H30.875C31.737 34.125 32.5636 33.7826 33.1731 33.1731C33.7826 32.5636 34.125 31.737 34.125 30.875V8.125C34.125 7.26305 33.7826 6.4364 33.1731 5.8269C32.5636 5.21741 31.737 4.875 30.875 4.875Z" stroke="black" stroke-width="1.5" stroke-linecap="round" stroke-linejoin="round"/>
</svg>
