<svg width="31" height="32" viewBox="0 0 31 32" fill="none" xmlns="http://www.w3.org/2000/svg">
<path d="M15.1581 4.32434C11.4235 4.32434 8.37683 7.46934 8.37683 11.3243C8.37683 13.7343 9.56839 15.8743 11.3741 17.1373C7.91861 18.6673 5.47058 22.2073 5.47058 26.3243H7.40808C7.40808 21.8943 10.8665 18.3243 15.1581 18.3243C19.4496 18.3243 22.9081 21.8943 22.9081 26.3243H24.8456C24.8456 22.2073 22.3975 18.6683 18.942 17.1363C19.8636 16.4941 20.6187 15.6285 21.1413 14.6153C21.6638 13.6021 21.9378 12.4722 21.9393 11.3243C21.9393 7.46934 18.8926 4.32434 15.1581 4.32434ZM15.1581 6.32434C17.8444 6.32434 20.0018 8.55134 20.0018 11.3243C20.0018 14.0973 17.8444 16.3243 15.1581 16.3243C12.4717 16.3243 10.3143 14.0973 10.3143 11.3243C10.3143 8.55134 12.4717 6.32434 15.1581 6.32434Z" fill="black" fill-opacity="0.83"/>
</svg>
