<svg id="visual" viewBox="0 0 1920 1080" width="1920" height="1080" xmlns="http://www.w3.org/2000/svg" xmlns:xlink="http://www.w3.org/1999/xlink" version="1.1"><rect x="0" y="0" width="1920" height="1080" fill="#FFFFFF"></rect><path d="M0 174L24.7 171.2C49.3 168.3 98.7 162.7 147.8 175.3C197 188 246 219 295.2 219.5C344.3 220 393.7 190 443 187.2C492.3 184.3 541.7 208.7 590.8 226.5C640 244.3 689 255.7 738.2 245.3C787.3 235 836.7 203 886 185.2C935.3 167.3 984.7 163.7 1034 162.3C1083.3 161 1132.7 162 1181.8 170.8C1231 179.7 1280 196.3 1329.2 218C1378.3 239.7 1427.7 266.3 1477 280.3C1526.3 294.3 1575.7 295.7 1624.8 280.7C1674 265.7 1723 234.3 1772.2 224.3C1821.3 214.3 1870.7 225.7 1895.3 231.3L1920 237L1920 1081L1895.3 1081C1870.7 1081 1821.3 1081 1772.2 1081C1723 1081 1674 1081 1624.8 1081C1575.7 1081 1526.3 1081 1477 1081C1427.7 1081 1378.3 1081 1329.2 1081C1280 1081 1231 1081 1181.8 1081C1132.7 1081 1083.3 1081 1034 1081C984.7 1081 935.3 1081 886 1081C836.7 1081 787.3 1081 738.2 1081C689 1081 640 1081 590.8 1081C541.7 1081 492.3 1081 443 1081C393.7 1081 344.3 1081 295.2 1081C246 1081 197 1081 147.8 1081C98.7 1081 49.3 1081 24.7 1081L0 1081Z" fill="#fcb13d"></path><path d="M0 420L24.7 397C49.3 374 98.7 328 147.8 325.7C197 323.3 246 364.7 295.2 381.5C344.3 398.3 393.7 390.7 443 391C492.3 391.3 541.7 399.7 590.8 386C640 372.3 689 336.7 738.2 326.2C787.3 315.7 836.7 330.3 886 350.3C935.3 370.3 984.7 395.7 1034 407.3C1083.3 419 1132.7 417 1181.8 413.2C1231 409.3 1280 403.7 1329.2 399.2C1378.3 394.7 1427.7 391.3 1477 384.2C1526.3 377 1575.7 366 1624.8 367.8C1674 369.7 1723 384.3 1772.2 383.8C1821.3 383.3 1870.7 367.7 1895.3 359.8L1920 352L1920 1081L1895.3 1081C1870.7 1081 1821.3 1081 1772.2 1081C1723 1081 1674 1081 1624.8 1081C1575.7 1081 1526.3 1081 1477 1081C1427.7 1081 1378.3 1081 1329.2 1081C1280 1081 1231 1081 1181.8 1081C1132.7 1081 1083.3 1081 1034 1081C984.7 1081 935.3 1081 886 1081C836.7 1081 787.3 1081 738.2 1081C689 1081 640 1081 590.8 1081C541.7 1081 492.3 1081 443 1081C393.7 1081 344.3 1081 295.2 1081C246 1081 197 1081 147.8 1081C98.7 1081 49.3 1081 24.7 1081L0 1081Z" fill="#ff9c3a"></path><path d="M0 473L24.7 465C49.3 457 98.7 441 147.8 444.3C197 447.7 246 470.3 295.2 469.7C344.3 469 393.7 445 443 442.3C492.3 439.7 541.7 458.3 590.8 458C640 457.7 689 438.3 738.2 434.8C787.3 431.3 836.7 443.7 886 444.8C935.3 446 984.7 436 1034 445.2C1083.3 454.3 1132.7 482.7 1181.8 482.8C1231 483 1280 455 1329.2 445.3C1378.3 435.7 1427.7 444.3 1477 455.2C1526.3 466 1575.7 479 1624.8 470.5C1674 462 1723 432 1772.2 418.2C1821.3 404.3 1870.7 406.7 1895.3 407.8L1920 409L1920 1081L1895.3 1081C1870.7 1081 1821.3 1081 1772.2 1081C1723 1081 1674 1081 1624.8 1081C1575.7 1081 1526.3 1081 1477 1081C1427.7 1081 1378.3 1081 1329.2 1081C1280 1081 1231 1081 1181.8 1081C1132.7 1081 1083.3 1081 1034 1081C984.7 1081 935.3 1081 886 1081C836.7 1081 787.3 1081 738.2 1081C689 1081 640 1081 590.8 1081C541.7 1081 492.3 1081 443 1081C393.7 1081 344.3 1081 295.2 1081C246 1081 197 1081 147.8 1081C98.7 1081 49.3 1081 24.7 1081L0 1081Z" fill="#ff873c"></path><path d="M0 617L24.7 606.2C49.3 595.3 98.7 573.7 147.8 562.5C197 551.3 246 550.7 295.2 563.7C344.3 576.7 393.7 603.3 443 607.3C492.3 611.3 541.7 592.7 590.8 596.2C640 599.7 689 625.3 738.2 622.2C787.3 619 836.7 587 886 586.5C935.3 586 984.7 617 1034 624.7C1083.3 632.3 1132.7 616.7 1181.8 615C1231 613.3 1280 625.7 1329.2 623.3C1378.3 621 1427.7 604 1477 605.8C1526.3 607.7 1575.7 628.3 1624.8 635.7C1674 643 1723 637 1772.2 636.2C1821.3 635.3 1870.7 639.7 1895.3 641.8L1920 644L1920 1081L1895.3 1081C1870.7 1081 1821.3 1081 1772.2 1081C1723 1081 1674 1081 1624.8 1081C1575.7 1081 1526.3 1081 1477 1081C1427.7 1081 1378.3 1081 1329.2 1081C1280 1081 1231 1081 1181.8 1081C1132.7 1081 1083.3 1081 1034 1081C984.7 1081 935.3 1081 886 1081C836.7 1081 787.3 1081 738.2 1081C689 1081 640 1081 590.8 1081C541.7 1081 492.3 1081 443 1081C393.7 1081 344.3 1081 295.2 1081C246 1081 197 1081 147.8 1081C98.7 1081 49.3 1081 24.7 1081L0 1081Z" fill="#ff7042"></path><path d="M0 665L24.7 684.3C49.3 703.7 98.7 742.3 147.8 749.8C197 757.3 246 733.7 295.2 711.5C344.3 689.3 393.7 668.7 443 672.2C492.3 675.7 541.7 703.3 590.8 715.8C640 728.3 689 725.7 738.2 718.3C787.3 711 836.7 699 886 686C935.3 673 984.7 659 1034 654.5C1083.3 650 1132.7 655 1181.8 675.3C1231 695.7 1280 731.3 1329.2 745.3C1378.3 759.3 1427.7 751.7 1477 748.5C1526.3 745.3 1575.7 746.7 1624.8 740.8C1674 735 1723 722 1772.2 716.3C1821.3 710.7 1870.7 712.3 1895.3 713.2L1920 714L1920 1081L1895.3 1081C1870.7 1081 1821.3 1081 1772.2 1081C1723 1081 1674 1081 1624.8 1081C1575.7 1081 1526.3 1081 1477 1081C1427.7 1081 1378.3 1081 1329.2 1081C1280 1081 1231 1081 1181.8 1081C1132.7 1081 1083.3 1081 1034 1081C984.7 1081 935.3 1081 886 1081C836.7 1081 787.3 1081 738.2 1081C689 1081 640 1081 590.8 1081C541.7 1081 492.3 1081 443 1081C393.7 1081 344.3 1081 295.2 1081C246 1081 197 1081 147.8 1081C98.7 1081 49.3 1081 24.7 1081L0 1081Z" fill="#ff574b"></path><path d="M0 832L24.7 831.5C49.3 831 98.7 830 147.8 818.8C197 807.7 246 786.3 295.2 779.7C344.3 773 393.7 781 443 793.7C492.3 806.3 541.7 823.7 590.8 842C640 860.3 689 879.7 738.2 880.8C787.3 882 836.7 865 886 852C935.3 839 984.7 830 1034 831C1083.3 832 1132.7 843 1181.8 850.7C1231 858.3 1280 862.7 1329.2 869.2C1378.3 875.7 1427.7 884.3 1477 876.5C1526.3 868.7 1575.7 844.3 1624.8 828.3C1674 812.3 1723 804.7 1772.2 801C1821.3 797.3 1870.7 797.7 1895.3 797.8L1920 798L1920 1081L1895.3 1081C1870.7 1081 1821.3 1081 1772.2 1081C1723 1081 1674 1081 1624.8 1081C1575.7 1081 1526.3 1081 1477 1081C1427.7 1081 1378.3 1081 1329.2 1081C1280 1081 1231 1081 1181.8 1081C1132.7 1081 1083.3 1081 1034 1081C984.7 1081 935.3 1081 886 1081C836.7 1081 787.3 1081 738.2 1081C689 1081 640 1081 590.8 1081C541.7 1081 492.3 1081 443 1081C393.7 1081 344.3 1081 295.2 1081C246 1081 197 1081 147.8 1081C98.7 1081 49.3 1081 24.7 1081L0 1081Z" fill="#ff3a57"></path><path d="M0 993L24.7 991C49.3 989 98.7 985 147.8 976.8C197 968.7 246 956.3 295.2 964C344.3 971.7 393.7 999.3 443 1009.2C492.3 1019 541.7 1011 590.8 993.3C640 975.7 689 948.3 738.2 934.8C787.3 921.3 836.7 921.7 886 923.2C935.3 924.7 984.7 927.3 1034 941C1083.3 954.7 1132.7 979.3 1181.8 986.5C1231 993.7 1280 983.3 1329.2 967.5C1378.3 951.7 1427.7 930.3 1477 931C1526.3 931.7 1575.7 954.3 1624.8 963.8C1674 973.3 1723 969.7 1772.2 956C1821.3 942.3 1870.7 918.7 1895.3 906.8L1920 895L1920 1081L1895.3 1081C1870.7 1081 1821.3 1081 1772.2 1081C1723 1081 1674 1081 1624.8 1081C1575.7 1081 1526.3 1081 1477 1081C1427.7 1081 1378.3 1081 1329.2 1081C1280 1081 1231 1081 1181.8 1081C1132.7 1081 1083.3 1081 1034 1081C984.7 1081 935.3 1081 886 1081C836.7 1081 787.3 1081 738.2 1081C689 1081 640 1081 590.8 1081C541.7 1081 492.3 1081 443 1081C393.7 1081 344.3 1081 295.2 1081C246 1081 197 1081 147.8 1081C98.7 1081 49.3 1081 24.7 1081L0 1081Z" fill="#ff0066"></path></svg>