<svg width="16" height="17" viewBox="0 0 16 17" fill="none" xmlns="http://www.w3.org/2000/svg">
<g clip-path="url(#clip0_130_131)">
<path d="M8.5 2.65625V1.0625C8.5 0.921604 8.44732 0.786478 8.35355 0.686849C8.25979 0.587221 8.13261 0.53125 8 0.53125C7.86739 0.53125 7.74021 0.587221 7.64645 0.686849C7.55268 0.786478 7.5 0.921604 7.5 1.0625V2.65625C7.5 2.79715 7.55268 2.93227 7.64645 3.0319C7.74021 3.13153 7.86739 3.1875 8 3.1875C8.13261 3.1875 8.25979 3.13153 8.35355 3.0319C8.44732 2.93227 8.5 2.79715 8.5 2.65625ZM4 8.5C4 9.34057 4.2346 10.1623 4.67412 10.8612C5.11365 11.5601 5.73836 12.1048 6.46927 12.4265C7.20017 12.7482 8.00444 12.8323 8.78036 12.6683C9.55629 12.5044 10.269 12.0996 10.8284 11.5052C11.3878 10.9108 11.7688 10.1536 11.9231 9.32913C12.0775 8.50471 11.9983 7.65018 11.6955 6.8736C11.3928 6.09701 10.8801 5.43325 10.2223 4.96625C9.56448 4.49926 8.79113 4.25 8 4.25C6.93949 4.25123 5.92275 4.69939 5.17285 5.49616C4.42296 6.29292 4.00116 7.37321 4 8.5ZM5 8.5C5 7.86957 5.17595 7.2533 5.50559 6.72912C5.83524 6.20494 6.30377 5.79639 6.85195 5.55513C7.40013 5.31388 8.00333 5.25076 8.58527 5.37375C9.16721 5.49674 9.70176 5.80032 10.1213 6.2461C10.5409 6.69188 10.8266 7.25984 10.9424 7.87815C11.0581 8.49646 10.9987 9.13736 10.7716 9.7198C10.5446 10.3022 10.1601 10.8001 9.66671 11.1503C9.17336 11.5006 8.59334 11.6875 8 11.6875C7.2046 11.6866 6.44202 11.3505 5.87959 10.7529C5.31716 10.1554 5.00083 9.34511 5 8.5ZM12.3537 4.62586C12.2599 4.72554 12.1327 4.78155 12 4.78155C11.8673 4.78155 11.7401 4.72554 11.6463 4.62586C11.5524 4.52618 11.4997 4.39097 11.4997 4.25C11.4997 4.10903 11.5524 3.97382 11.6462 3.87414L12.6463 2.81164C12.7401 2.71196 12.8673 2.65595 13 2.65595C13.1327 2.65595 13.2599 2.71196 13.3537 2.81164C13.4476 2.91132 13.5003 3.04653 13.5003 3.1875C13.5003 3.32847 13.4476 3.46368 13.3537 3.56336L12.3537 4.62586ZM12.3537 12.3741L13.3537 13.4366C13.4476 13.5363 13.5003 13.6715 13.5003 13.8125C13.5003 13.9535 13.4476 14.0887 13.3537 14.1884C13.2599 14.288 13.1327 14.344 13 14.344C12.8673 14.344 12.7401 14.288 12.6463 14.1884L11.6462 13.1259C11.5998 13.0765 11.5629 13.0179 11.5378 12.9534C11.5127 12.8889 11.4997 12.8198 11.4997 12.75C11.4997 12.6802 11.5127 12.6111 11.5378 12.5466C11.5629 12.4821 11.5998 12.4235 11.6462 12.3741C11.6927 12.3248 11.7479 12.2856 11.8086 12.2589C11.8692 12.2322 11.9343 12.2185 12 12.2185C12.0657 12.2185 12.1308 12.2322 12.1914 12.2589C12.2521 12.2856 12.3073 12.3248 12.3537 12.3741ZM4 4.78125C3.93432 4.7813 3.86927 4.76761 3.80857 4.74095C3.74788 4.71428 3.69272 4.67518 3.64625 4.62586L2.64625 3.56336C2.55243 3.46368 2.49972 3.32847 2.49972 3.1875C2.49972 3.04653 2.55243 2.91132 2.64625 2.81164C2.74007 2.71196 2.86732 2.65595 3 2.65595C3.13268 2.65595 3.25993 2.71196 3.35375 2.81164L4.35375 3.87414C4.42376 3.94844 4.47144 4.04314 4.49076 4.14624C4.51009 4.24935 4.50019 4.35623 4.46231 4.45336C4.42443 4.55048 4.36029 4.63348 4.27799 4.69185C4.19569 4.75022 4.09895 4.78133 4 4.78125ZM3.64625 12.3741C3.74007 12.2745 3.86732 12.2185 4 12.2185C4.13268 12.2185 4.25993 12.2745 4.35375 12.3741C4.44757 12.4738 4.50028 12.609 4.50028 12.75C4.50028 12.891 4.44757 13.0262 4.35375 13.1259L3.35375 14.1884C3.3073 14.2377 3.25214 14.2769 3.19145 14.3036C3.13075 14.3303 3.0657 14.344 3 14.344C2.9343 14.344 2.86925 14.3303 2.80855 14.3036C2.74786 14.2769 2.6927 14.2377 2.64625 14.1884C2.59979 14.139 2.56294 14.0804 2.5378 14.0159C2.51266 13.9514 2.49972 13.8823 2.49972 13.8125C2.49972 13.7427 2.51266 13.6736 2.5378 13.6091C2.56294 13.5446 2.59979 13.486 2.64625 13.4366L3.64625 12.3741ZM13 8.5C13 8.3591 13.0527 8.22398 13.1464 8.12435C13.2402 8.02472 13.3674 7.96875 13.5 7.96875H15C15.1326 7.96875 15.2598 8.02472 15.3536 8.12435C15.4473 8.22398 15.5 8.3591 15.5 8.5C15.5 8.6409 15.4473 8.77602 15.3536 8.87565C15.2598 8.97528 15.1326 9.03125 15 9.03125H13.5C13.3674 9.03125 13.2402 8.97528 13.1464 8.87565C13.0527 8.77602 13 8.6409 13 8.5ZM8 13.8125C8.13261 13.8125 8.25979 13.8685 8.35355 13.9681C8.44732 14.0677 8.5 14.2029 8.5 14.3438V15.9375C8.5 16.0784 8.44732 16.2135 8.35355 16.3132C8.25979 16.4128 8.13261 16.4688 8 16.4688C7.86739 16.4688 7.74021 16.4128 7.64645 16.3132C7.55268 16.2135 7.5 16.0784 7.5 15.9375V14.3438C7.5 14.2029 7.55268 14.0677 7.64645 13.9681C7.74021 13.8685 7.86739 13.8125 8 13.8125ZM1 7.96875H2.5C2.63261 7.96875 2.75979 8.02472 2.85355 8.12435C2.94732 8.22398 3 8.3591 3 8.5C3 8.6409 2.94732 8.77602 2.85355 8.87565C2.75979 8.97528 2.63261 9.03125 2.5 9.03125H1C0.867392 9.03125 0.740214 8.97528 0.646446 8.87565C0.552678 8.77602 0.5 8.6409 0.5 8.5C0.5 8.3591 0.552678 8.22398 0.646446 8.12435C0.740214 8.02472 0.867392 7.96875 1 7.96875Z" fill="black"/>
</g>
<defs>
<clipPath id="clip0_130_131">
<rect width="16" height="17" fill="white" transform="matrix(-1 0 0 1 16 0)"/>
</clipPath>
</defs>
</svg>
